<svg width="620" height="390" xmlns="http://www.w3.org/2000/svg">
  <defs>
    <!-- Efek kilap glossy -->
    <linearGradient id="glossyBar" x1="0%" y1="0%" x2="0%" y2="100%">
      <stop offset="0%" style="stop-color:#87c3ff;stop-opacity:1" />
      <stop offset="50%" style="stop-color:#58a6ff;stop-opacity:1" />
      <stop offset="100%" style="stop-color:#2373d3;stop-opacity:1" />
    </linearGradient>
    <linearGradient id="bgGloss" x1="0%" y1="0%" x2="100%" y2="100%">
      <stop offset="0%" style="stop-color:#1c232c;stop-opacity:1" />
      <stop offset="100%" style="stop-color:#161b22;stop-opacity:1" />
    </linearGradient>
  </defs>

  <!-- Latar & Bingkai -->
  <rect x="1" y="1" width="618" height="388" rx="8" fill="url(#bgGloss)" stroke="#30363d" stroke-width="1.5"/>

  <!-- Judul -->
  <text x="28" y="38" font-family="'Segoe UI', 'Poppins', sans-serif" font-size="18" font-weight="700" fill="#c9d1d9">📈 Development Skills</text>

  <!-- 1. JavaScript 100% -->
  <text x="28" y="68" font-family="'Segoe UI', sans-serif" font-size="13" fill="#8b949e">JavaScript</text>
  <text x="552" y="68" font-size="12" fill="#8b949e" text-anchor="end">100%</text>
  <rect x="28" y="78" width="480" height="9" rx="2" fill="#21262d"/>
  <rect x="28" y="78" width="480" height="9" rx="2" fill="url(#glossyBar)"/>

  <!-- 2. Node.js 98% -->
  <text x="28" y="98" font-size="13" fill="#8b949e">Node.js</text>
  <text x="552" y="98" font-size="12" fill="#8b949e" text-anchor="end">98%</text>
  <rect x="28" y="108" width="480" height="9" rx="2" fill="#21262d"/>
  <rect x="28" y="108" width="470" height="9" rx="2" fill="url(#glossyBar)"/>

  <!-- 3. WhatsApp Bot 100% -->
  <text x="28" y="128" font-size="13" fill="#8b949e">WhatsApp Bot</text>
  <text x="552" y="128" font-size="12" fill="#8b949e" text-anchor="end">100%</text>
  <rect x="28" y="138" width="480" height="9" rx="2" fill="#21262d"/>
  <rect x="28" y="138" width="480" height="9" rx="2" fill="url(#glossyBar)"/>

  <!-- 4. HTML 95% -->
  <text x="28" y="158" font-size="13" fill="#8b949e">HTML</text>
  <text x="552" y="158" font-size="12" fill="#8b949e" text-anchor="end">95%</text>
  <rect x="28" y="168" width="480" height="9" rx="2" fill="#21262d"/>
  <rect x="28" y="168" width="456" height="9" rx="2" fill="url(#glossyBar)"/>

  <!-- 5. CSS 85% -->
  <text x="28" y="188" font-size="13" fill="#8b949e">CSS</text>
  <text x="552" y="188" font-size="12" fill="#8b949e" text-anchor="end">85%</text>
  <rect x="28" y="198" width="480" height="9" rx="2" fill="#21262d"/>
  <rect x="28" y="198" width="408" height="9" rx="2" fill="url(#glossyBar)"/>

  <!-- 6. MongoDB 90% -->
  <text x="28" y="218" font-size="13" fill="#8b949e">MongoDB</text>
  <text x="552" y="218" font-size="12" fill="#8b949e" text-anchor="end">90%</text>
  <rect x="28" y="228" width="480" height="9" rx="2" fill="#21262d"/>
  <rect x="28" y="228" width="432" height="9" rx="2" fill="url(#glossyBar)"/>

  <!-- 7. Linux 82% -->
  <text x="28" y="248" font-size="13" fill="#8b949e">Linux</text>
  <text x="552" y="248" font-size="12" fill="#8b949e" text-anchor="end">82%</text>
  <rect x="28" y="258" width="480" height="9" rx="2" fill="#21262d"/>
  <rect x="28" y="258" width="394" height="9" rx="2" fill="url(#glossyBar)"/>

  <!-- 8. Git 92% -->
  <text x="28" y="278" font-size="13" fill="#8b949e">Git</text>
  <text x="552" y="278" font-size="12" fill="#8b949e" text-anchor="end">92%</text>
  <rect x="28" y="288" width="480" height="9" rx="2" fill="#21262d"/>
  <rect x="28" y="288" width="442" height="9" rx="2" fill="url(#glossyBar)"/>

  <!-- 9. REST API 98% -->
  <text x="28" y="308" font-size="13" fill="#8b949e">REST API</text>
  <text x="552" y="308" font-size="12" fill="#8b949e" text-anchor="end">98%</text>
  <rect x="28" y="318" width="480" height="9" rx="2" fill="#21262d"/>
  <rect x="28" y="318" width="470" height="9" rx="2" fill="url(#glossyBar)"/>

  <!-- 10. Automation 100% -->
  <text x="28" y="338" font-size="13" fill="#8b949e">Automation</text>
  <text x="552" y="338" font-size="12" fill="#8b949e" text-anchor="end">100%</text>
  <rect x="28" y="348" width="480" height="9" rx="2" fill="#21262d"/>
  <rect x="28" y="348" width="480" height="9" rx="2" fill="url(#glossyBar)"/>
</svg>

